<?xml version="1.0" encoding="utf-8"?>
<!-- Generator: Adobe Illustrator 21.0.0, SVG Export Plug-In . SVG Version: 6.00 Build 0)  -->
<svg version="1.1" id="Lager_1" xmlns="http://www.w3.org/2000/svg" xmlns:xlink="http://www.w3.org/1999/xlink" x="0px" y="0px"
	 viewBox="0 0 202.2 215.8" style="enable-background:new 0 0 202.2 215.8;" xml:space="preserve">
<style type="text/css">
	.st0{fill:#333333;}
</style>
<g>
	<path class="st0" d="M89.4,52.3v0.4c0,2,1.1,3.6,2.7,4.6v40.9c-4.6,0.9-7.7,2.6-7.7,4.6v2.1c0,2.9,7,5.3,15.7,5.3
		c8.7,0,15.7-2.4,15.7-5.3v-2.1c0-1.9-3.1-3.6-7.7-4.6V57.2c1.6-0.9,2.7-2.6,2.7-4.6v-0.4c9.7-4.1,16.6-13.8,16.6-25.1
		c0-15.6-13.1-28.2-29-27.2C84.8,0.9,73.8,11.8,72.9,25.3C72.1,37.4,79.1,47.9,89.4,52.3z M103.7,98.2c0,1.9-1.5,3.4-3.4,3.4h-0.6
		c-1.9,0-3.4-1.5-3.4-3.4V62.1c0-1.9,1.5-3.4,3.4-3.4h0.6c1.9,0,3.4,1.5,3.4,3.4V98.2z M99,5.3c12.8,0.3,22.8,10.3,23.1,23.1
		c0.1,4.2-6.3,4.1-6.5,0c-0.3-9.3-7.4-16.4-16.7-16.7C94.9,11.6,94.9,5.2,99,5.3z"/>
	<path class="st0" d="M191.9,114.7l-69.7-28.4c0,0-0.1,0-0.1,0l0,0l0,0c-0.7-0.3-1.5-0.3-2.3,0c-1.6,0.7-2.3,2.5-1.6,4
		c0.3,0.8,0.9,1.3,1.7,1.6l0,0l31.8,13.8c1.1,0.5,1.3,2,0.4,2.7c-2.6,2.1-5.9,3.7-3.9,8.7c0.9,2.2,0.7,4.6-1.6,5.4
		c-14,5-36.1,14-48.3,19.1c-5.6,2.3-12,1.8-17.2-1.4l-44.2-27.4c-1.6-1-1.3-3.4,0.5-4l42.1-12.7l0,0c1.3-0.3,2.3-1.5,2.3-2.9
		c0-1.6-1.3-3-3-3c-0.3,0-0.5,0-0.8,0.1l0,0l-65.8,18.3C5,110.8,0,117.4,0,125v19.6c0,5.3,2.4,10.3,6.6,13.5l68.1,54.2
		c5,3.9,11.8,4.7,17.6,2l100-46.3c6-2.8,9.9-8.8,9.9-15.5v-22.2C202.2,123.5,198.2,117.4,191.9,114.7z M175.4,115.6
		c0,2.5-5.1,4.4-11.4,4.4s-11.4-2-11.4-4.4v-2.7c0-2.5,5.1-4.4,11.4-4.4s11.4,2,11.4,4.4V115.6z"/>
	<path class="st0" d="M111.9,112.8c-0.3,2.2-10.2,2.4-11.9,2.4c-1.7,0-11.6-0.2-11.9-2.4c-0.8-5-8.4-2.9-7.6,2.1
		c1.1,7.5,14,8.2,19.5,8.2c5.6,0,18.4-0.7,19.5-8.2C120.3,109.9,112.7,107.7,111.9,112.8z"/>
</g>
</svg>
