<svg xmlns="http://www.w3.org/2000/svg" viewBox="0 0 484.674 999.971"><defs><style>.a{fill:#333333;}</style></defs><title>mobiltelefon</title><path class="a" d="M7.846,352.948c-.725-.087-1.287-.193-1.854-.217-4.687-.2-5.975-1.538-5.986-6.3-.013-5.75,0-78.746,0-109.494,0-7.565.258-7.86,7.843-8.634,0-1.021-.03-116.792.017-173.622.015-18.881,7.734-34,23.023-45.044A51.236,51.236,0,0,1,58.337.091C59.667.012,302.322-.032,422.315.027,443.1.037,458.9,9.284,469.641,26.984c5.218,8.6,7.188,18.157,7.185,28.185-.025,67.246-.013,203.872-.013,205.256,1.516,0,2.82-.023,4.123,0,2.681.059,3.582.908,3.7,3.593.073,1.664.02,30.831.019,43.747,0,5.06-.531,5.6-5.545,5.637h-2.133v54.665c1.176,0,2.388-.044,3.6.008,2.649.115,3.793,1.185,4.049,3.775.073.743.034,42.246.034,62.244,0,5.828-.428,6.27-6.159,6.381-.48.009-.959.052-1.683.093,0,1.277-.007,337.212.015,504.035,0,12.644-3.277,24.207-11.074,34.245-10,12.873-23.263,19.8-39.506,21.032-1.327.1-243.817.1-363.727.08-18.9,0-33.987-7.725-45.021-23.032-6.512-9.034-9.465-19.344-9.644-30.453C7.808,943.481,7.846,354.2,7.846,352.948ZM455.4,499.991h.012q0-215.115-.029-430.233a56.849,56.849,0,0,0-.731-10.689A45.987,45.987,0,0,0,409,21.559q-166.618-.024-333.237.013a45.583,45.583,0,0,0-7.223.5c-24.679,4-39.381,24.586-39.372,46.564q.171,431.235.1,862.467a54.51,54.51,0,0,0,.7,9.7,45.922,45.922,0,0,0,45.3,37.6q167.12.056,334.237,0a42.112,42.112,0,0,0,19.322-4.31c17.59-8.948,26.562-23.327,26.564-43.124Q455.412,715.484,455.4,499.991Z"/><path class="a" d="M44.813,538.577c19.9,13.867,348.137,242.582,393.093,273.874a3.893,3.893,0,0,1,1.986,3.6c-.062,35.913-.019,71.826-.06,107.738-.017,14.825-8.2,26.932-21.986,32.349a24.47,24.47,0,0,1-8.719,1.7q-165.608.126-331.215.139c-11.05.011-19.357-4.751-26.015-12.94-5.064-6.229-7.112-13.593-7.1-21.609C44.839,895.679,44.813,540.023,44.813,538.577Z"/><path class="a" d="M439.315,562.652l-270-521.084c1.336,0,158.092-.007,235.662.006,16.852,0,30.289,10.512,34.014,26.747a42.522,42.522,0,0,1,.826,9.41c.039,130.811.033,452.256.033,482.168v2.628Z"/><path class="a" d="M61.275,46.358c3.8,5.848,164.957,254.42,241.88,373.06Q370.931,523.953,438.7,628.49a6.333,6.333,0,0,1,1.1,3.181c.065,19,.047,38,.043,56.994,0,.318-.053.636-.129,1.5-1.94-2.193-306.839-355.145-335.852-388.751q-28.905-33.481-57.779-66.987a5.489,5.489,0,0,1-1.217-3.3q-.087-77.49-.024-154.982C44.855,63.439,50.488,53.65,61.275,46.358Z"/></svg>